<?xml version="1.0" encoding="UTF-8"?>
<!DOCTYPE svg PUBLIC "-//W3C//DTD SVG 1.0//EN" "http://www.w3.org/TR/2001/REC-SVG-20010904/DTD/svg10.dtd">
<!-- Creator: CorelDRAW X7 -->
<svg xmlns="http://www.w3.org/2000/svg" xml:space="preserve" width="42.3332mm" height="42.3332mm" version="1.0" style="shape-rendering:geometricPrecision; text-rendering:geometricPrecision; image-rendering:optimizeQuality; fill-rule:evenodd; clip-rule:evenodd"
viewBox="0 0 4233 4233"
 xmlns:xlink="http://www.w3.org/1999/xlink">
 <defs>
  <style type="text/css">
   <![CDATA[
    .fil0 {fill:white}
    .fil1 {fill:white;fill-rule:nonzero}
   ]]>
  </style>
 </defs>
 <g id="Layer_x0020_1">
  <metadata id="CorelCorpID_0Corel-Layer"/>
  <g id="_1868377839216">
   <path class="fil0" d="M2867 1144l-3 29c27,-3 148,-65 171,-65l39 0c1,0 52,18 59,20 8,3 37,26 46,32 27,20 56,54 80,78 52,51 94,117 143,171 51,56 87,116 142,171 27,27 54,50 80,76 11,11 31,27 44,35 6,5 52,28 52,30 0,1 -20,46 -23,56 -7,23 -12,42 -19,63 -14,38 -14,95 -19,141 -6,52 -10,88 -10,150 0,31 0,128 -5,156 -16,103 -1,200 -53,268 -42,54 -37,37 -104,56 -21,6 -117,23 -138,23 14,51 132,109 132,200 0,132 -135,301 -191,393 -18,30 -39,58 -60,87 -17,24 -37,64 -54,91 -26,42 -75,155 -77,217l-60 -8 -39 0c-10,0 -72,5 -89,7 -18,3 -63,13 -83,17 -57,12 -101,31 -153,44 -54,13 -95,30 -151,44 -39,10 -130,34 -166,34l-32 0c-79,0 -115,-14 -142,-67 -14,-28 -61,-118 -68,-143 -23,2 -67,105 -83,124 -37,43 -55,72 -135,72l-32 0c-88,0 -157,-29 -233,-44 -38,-7 -197,-50 -216,-63 -23,0 -85,-15 -115,-20 -41,-7 -77,-12 -124,-12l-25 0c-43,0 -56,22 -63,-15 -5,-29 -10,-52 -21,-75 -17,-32 -39,-110 -65,-127 0,-36 -133,-207 -158,-248 -34,-56 -138,-197 -138,-273l0 -32c0,-59 141,-152 149,-184l-46 -8c-40,-27 -117,-13 -166,-62 -30,-29 -62,-113 -61,-170l-8 -11c0,-31 -7,-48 -7,-89 0,-28 -3,-62 -3,-96 -1,-57 -11,-131 -11,-185 0,-40 -13,-143 -21,-176 -6,-27 -9,-52 -17,-79 -8,-27 -24,-44 -30,-70 13,-1 82,-49 94,-59 27,-25 52,-53 78,-79 48,-48 99,-114 142,-168 23,-28 38,-61 63,-90 23,-27 46,-61 71,-86 39,-39 117,-127 186,-127l8 0c49,0 149,75 192,85 0,-54 -7,-117 -7,-171 0,-62 34,-84 68,-113 36,-31 188,-104 242,-119 36,-9 90,-35 129,-49 49,-18 85,-33 131,-51 28,-11 95,-42 118,-59 17,-13 39,-24 54,-36 6,-5 49,-43 49,-43 0,0 73,58 87,66 16,9 29,19 46,29 21,12 33,14 54,25 34,17 70,30 110,42 38,11 71,32 111,43 33,9 76,29 112,41 26,9 82,31 109,45 56,27 152,75 152,154l2 8 -22 149 1 0zm-756 -26c634,0 1148,514 1148,1148 0,633 -514,1147 -1148,1147 -633,0 -1147,-514 -1147,-1147 0,-634 514,-1148 1147,-1148z"/>
   <path class="fil1" d="M3025 2242c0,507 -411,918 -918,918 -507,0 -918,-411 -918,-918 0,-507 411,-918 918,-918 507,0 918,411 918,918zm-1321 8c0,109 70,210 126,266 57,57 167,111 280,111 119,0 217,-51 278,-111 39,-39 55,-57 84,-108 15,-27 45,-109 45,-148l0 -71c0,-186 -192,-378 -378,-378l-50 0c-104,0 -209,61 -263,115 -49,49 -122,158 -122,252l0 72zm417 363l-7 3 -125 -21 0 -6 97 -8 100 -1 60 5c-11,15 -97,28 -125,28zm-278 -110l30 -12 66 79c-22,-1 -85,-51 -96,-67zm428 71c5,-7 78,-93 78,-93 16,0 20,10 43,11 -15,22 -90,79 -121,82zm-378 -82c0,-12 24,-17 36,-18 12,24 9,8 22,21 2,2 11,20 16,27 11,16 22,35 33,52 -11,1 -13,4 -25,4 -13,0 -82,-82 -82,-86l0 0zm71 -4c0,-23 24,-32 47,-32l7 0c10,0 21,43 27,55 7,14 25,43 26,55l-53 4c-9,-15 -54,-66 -54,-82zm282 82l-36 0c1,-11 25,-41 32,-54 5,-9 27,-53 36,-53l11 0c3,0 24,11 42,11 -4,18 -71,96 -85,96l0 0zm-57 -7l-50 0c8,-15 24,-37 28,-54 3,-11 17,-57 26,-57l60 8c-2,22 -48,93 -64,103zm-149 -109l63 -5 0 114 -14 0 -49 -109 0 0zm78 109l0 -114 57 0c-2,23 -43,105 -57,114zm-139 -117l20 -69 12 47 7 17 -39 5 0 0zm-211 -40l49 -20 48 88c-5,6 -31,18 -33,18 -22,0 -55,-66 -64,-86zm631 75l-42 -14 45 -95 -1 -4 59 24c-7,28 -41,76 -61,89zm-567 -107c17,-1 28,-10 36,-10 12,0 108,107 18,107 -17,0 -51,-76 -53,-97l-1 0zm507 86c-18,0 -42,-7 -58,-11l29 -85c8,2 9,4 15,4l60 -4c-1,16 -36,96 -46,96zm-73 -17l-71 -5 17 -74 9 -38 79 10 2 4 -36 103 0 0zm-87 -8l-61 0 0 -114 91 1 -30 113zm-115 -114l39 0 0 113 -67 5c-5,-22 -15,-55 -22,-78 -5,-16 -12,-29 4,-33 14,-3 32,-7 46,-7l0 0zm11 -14l-50 3 -18 4 5 -89 91 0 -3 78 -25 4 0 0zm-271 -79l75 0 0 14c0,49 2,117 -54,118 -8,-34 -21,-63 -21,-107l0 -25 0 0zm502 71l-3 22 -18 0 -21 -4 -18 -3 -22 -4 4 -85 85 0 -3 42 -4 33 0 -1zm-96 -7l-3 15 -86 -4 -4 -78 97 0 -4 42 0 25 0 0zm132 -25l-14 54 -7 0 3 -54 4 -39 57 0 3 4 14 7 7 0 -3 25 -36 0 -28 3 0 0zm-563 -42c15,0 13,41 14,53 2,24 7,37 7,57l13 35 -3 -1 -53 23c-21,-45 -39,-100 -39,-167l61 0zm646 1l77 -1 0 28c0,48 -22,89 -33,127l-57 -23 1 -4c14,0 50,-15 50,-25 0,-28 -39,-40 -39,-57l0 -18 23 6 -21 -33 -1 0zm-532 -1l11 0c-2,14 -3,15 -11,21l0 -21zm338 -50l11 -11 7 -4 4 -3 35 -14 18 0 4 14 4 57 -86 0 3 -39 0 0zm-114 -39l29 0 3 7 0 3 4 14c8,10 17,36 32,36l4 0c9,0 10,-2 18,-3l10 -5 -3 22 -97 0 0 -74zm-309 7l11 46 14 21 -29 0 -1 -21 5 -46 0 0zm192 17c0,-5 21,-28 28,-28l64 0c9,0 11,2 11,11l0 67 -85 0c-13,0 -11,-8 -11,-21 -4,-6 -7,-6 -7,-14l0 -15zm-104 50c4,-13 70,-42 86,-46l0 11c0,11 -47,35 -61,35l-25 0zm467 -57l7 7 7 8c17,0 36,-6 36,10l0 22c0,7 -1,6 -3,10 -9,-6 -19,-21 -29,-21 -2,0 -8,5 -11,7 3,9 8,18 -7,18l-28 0c-15,0 -14,-57 -14,-71l28 3 0 -7 -3 -3 0 -7 39 -9 7 1c11,0 10,4 11,15 -10,-3 -15,-7 -22,-7 -2,0 -13,11 -18,14l0 10 0 0zm107 -96c16,30 32,106 32,153l-78 0 0 -35 14 0c-5,-18 -21,-19 -21,-32l0 -22 42 0 -35 -45 46 -19 0 0zm-752 121c0,-24 29,-128 43,-128 3,0 45,19 50,21 -2,20 -12,46 -16,70 -2,15 -1,69 -16,69l-61 0 0 -32zm399 -199l57 0 20 74c-7,10 -48,68 -55,68l-21 0 0 -142 -1 0zm-96 64c1,-20 10,-39 14,-57 5,-20 32,-7 57,-7l11 0 0 139 -68 -6 25 -58 -39 -11 0 0zm232 -72l20 46 -49 1c-17,0 0,9 -21,14 -2,-8 -11,-38 -11,-43l1 -9 60 -9zm-321 43c0,-3 18,-52 32,-50l57 9 -16 70 -41 -9 -25 -2c-2,-4 -7,-12 -7,-18zm335 -50c31,0 42,-10 57,-10 10,0 40,61 43,75l-29 0 -46 -5 -25 -60zm-150 -89c16,5 47,59 47,79l0 11 -47 0 0 -90zm-227 70l49 14 -15 41c-16,-1 -12,-7 -28,-7l-3 0c-22,0 -21,7 -38,9l35 -57 0 0zm156 16c2,-20 30,-86 46,-86l11 0 0 89 -11 0 -46 -3zm300 -11c10,-2 31,-11 39,-11 12,0 73,86 75,107 -12,3 -41,18 -47,18 -12,0 -65,-101 -67,-114zm-581 86c2,-26 63,-95 82,-107l28 11c0,2 -26,48 -31,58 -5,11 -23,56 -33,56l-4 0c-4,0 -32,-16 -42,-18zm420 -161c14,0 56,63 57,82l-60 4 -39 -84 42 -2zm-221 75c1,-14 46,-78 57,-78l47 0 -38 85 -20 0c-21,0 -26,-6 -46,-7zm349 -7c-5,3 -38,11 -46,11 -10,0 -51,-72 -53,-82l35 -4c7,-1 60,59 64,75l0 0zm-406 -11c4,-13 52,-67 64,-67l25 0c-2,9 -42,78 -53,78 -11,0 -23,-8 -36,-11l0 0zm364 -67c22,0 95,46 99,64l-36 5 -63 -69zm-329 -2c-3,7 -55,66 -56,66 -3,0 -25,-9 -31,-15l87 -51zm51 -20c32,-3 56,-18 103,-18l29 0c29,0 110,14 121,29l-64 8 -104 -1 -85 -12 0 -6 0 0zm394 1079l-93 0 -2 3 76 50 -28 75c9,-6 72,-46 79,-46 0,0 63,41 73,45l-32 -76 75 -48 -2 -3 -89 0 -25 -75 -4 1 -28 74 0 0zm345 -834l69 51 -22 67c17,-4 54,-36 67,-36 10,0 61,36 75,43 0,-27 -25,-59 -25,-71 0,-14 55,-40 65,-54l-85 0 -26 -76 -4 1c-8,17 -16,47 -25,68 -7,15 -67,7 -89,7zm-1400 0l-87 2 69 48 -29 75 2 3 73 -49 73 49 3 -3 -28 -75 -3 -2 69 -48 -85 0c-9,-16 -14,-70 -31,-74l-26 74zm1283 -406l-89 0c9,12 71,45 71,50 0,11 -23,47 -25,75 13,-4 71,-47 71,-47 13,0 59,42 78,46l-27 -76 67 -48 -87 0 -31 -76 -28 76 0 0zm-1048 -75l-5 1 -28 73 -89 2 70 46 -26 79 74 -46 73 41 -22 -74 67 -47 -88 -1 -26 -74zm171 1318l-84 3 75 47 -2 4 -21 71c11,-7 59,-43 71,-43 6,0 64,38 71,43l-1 -17 -20 -54 -2 -3 72 -47 -2 -4 -88 0 -27 -67 -6 0c-4,15 -22,67 -36,67l0 0zm1000 -366l-92 0 -2 3 76 50 -28 75c9,-6 72,-46 79,-46 0,0 62,42 72,46l-31 -77 75 -48 -2 -3 -89 0 -25 -75 -4 1 -28 74 -1 0zm-1329 0l-82 0 -2 3 73 50 -28 75c12,-3 70,-46 74,-46 12,0 61,42 78,46l-29 -77 73 -51 -82 0c-12,0 -33,-59 -36,-71 -16,11 -21,71 -39,71l0 0zm655 -1109l-121 2 98 63 -29 96c11,-6 93,-54 93,-54 1,0 79,47 95,53l-32 -93 -4 -1 101 -66 -119 0 -37 -100 -5 1 -40 99zm151 1399c-26,0 -61,-6 -79,-14 13,-18 58,-25 90,-25l24 0c20,0 57,2 61,18 -33,7 -50,21 -96,21zm-310 -29c15,-3 19,-10 39,-10l57 0c16,0 63,15 75,21 -12,16 -58,18 -86,18 -30,0 -74,-11 -85,-29zm435 -17c-5,0 -48,-22 -82,-22l-47 0c-45,0 -102,36 -103,36 -13,0 -63,-36 -121,-36l-25 0c-34,0 -64,10 -86,22 -9,-6 -21,-21 -21,-36l0 -14c0,-17 11,-29 21,-36 20,9 57,21 86,21l18 0c18,0 60,-4 72,-9 9,-4 51,-30 52,-30 11,0 12,11 27,17 11,4 20,6 32,11 22,9 46,11 77,11l3 0c46,0 62,-13 97,-21 9,6 17,17 17,32l0 11c0,12 -9,43 -17,43zm-200 -122c23,0 28,-10 50,-10l21 0c32,0 94,7 100,28 -21,2 -33,11 -57,11l-39 0c-29,0 -64,-9 -75,-29zm-143 29l-25 0c-22,0 -59,-3 -64,-21 30,-7 34,-18 79,-18l42 0c23,0 24,9 43,10l0 8c-23,6 -40,21 -75,21zm-402 -520c0,-119 84,-261 145,-322 42,-42 77,-74 136,-99 45,-19 117,-54 178,-54l82 0c143,0 266,82 338,155 73,73 143,200 143,344 0,124 -34,213 -82,289 -21,35 -155,175 -195,175 -3,0 -60,-36 -107,-36l-47 0c-26,0 -79,25 -82,25 -3,0 -28,-13 -40,-16 -18,-4 -26,-9 -45,-9l-25 0c-20,0 -58,4 -73,10 -13,4 -46,26 -52,26 -15,0 -93,-63 -106,-76 -25,-23 -66,-66 -84,-94 -43,-69 -84,-166 -84,-276l0 -42zm-29 10l0 29c0,235 140,375 282,470 -10,14 -22,27 -22,50l0 18c0,14 15,41 22,50 -4,6 -25,26 -25,28 0,12 10,14 18,18 6,-4 25,-25 28,-25 5,0 36,25 57,29 28,4 45,10 79,10l14 0c28,0 78,-24 85,-24 2,0 70,24 82,24l36 0c23,0 43,-6 64,-10 12,-3 53,-25 53,-25 11,0 24,19 33,25l20 -12 4 -2 -32 -36c9,-13 18,-25 18,-46l0 -29c0,-17 -11,-32 -18,-43 90,-60 134,-88 193,-182 24,-39 49,-69 60,-124 12,-52 29,-90 29,-161l0 -14c0,-275 -241,-531 -510,-531l-39 0c-162,0 -287,71 -368,152 -59,59 -67,78 -109,152 -22,38 -54,149 -54,209l0 0z"/>
   <path class="fil1" d="M292 1682c23,15 46,23 69,40 10,10 34,34 39,47 19,46 32,76 41,133 17,99 23,210 25,325 1,110 15,221 39,310 13,45 30,85 58,117 44,52 61,39 106,69 -28,41 -57,62 -57,135l0 15c0,132 133,310 193,394 56,78 199,274 199,393l0 18c0,43 -21,79 -22,121 35,-17 59,-43 94,-59 28,-12 70,-19 110,-19 60,0 136,12 185,25 53,13 115,30 166,48 54,18 113,24 166,44 26,10 152,22 192,22l10 0c36,0 98,-13 120,-26 50,-30 49,-44 80,-67 20,15 31,49 70,73 6,4 41,21 47,24 15,6 45,5 58,14l82 0c6,-4 143,-29 164,-35 52,-16 101,-29 153,-44 88,-24 216,-71 324,-71l29 0c73,-5 211,85 211,83 -9,-34 -43,-83 -44,-136 0,-149 120,-296 198,-413 6,-8 13,-12 19,-20 6,-7 6,-15 14,-25 9,-14 21,-32 28,-46 16,-30 35,-70 54,-96 38,-52 72,-140 72,-227l0 -4c0,-72 -40,-103 -43,-128l11 0c37,0 87,-46 108,-67 31,-31 45,-64 57,-114 6,-21 17,-52 20,-70 3,-25 3,-55 7,-78 5,-36 4,-126 4,-167 0,-83 6,-258 27,-319 8,-23 9,-48 18,-71 9,-24 16,-37 27,-58 28,-53 78,-74 121,-111 -36,-1 -58,0 -93,0l-29 0c-27,0 -102,-41 -118,-57 -32,-29 -59,-54 -89,-85 -22,-22 -60,-70 -79,-96 -12,-16 -26,-28 -39,-46 -14,-19 -21,-33 -36,-50 -78,-93 -230,-308 -384,-308l-35 0c-21,0 -27,9 -47,11l0 -47c0,-95 -107,-168 -173,-204 -47,-26 -73,-43 -129,-60 -39,-12 -96,-34 -136,-49 -47,-18 -93,-30 -137,-52 -24,-12 -42,-13 -65,-27 -14,-9 -107,-66 -121,-74 -53,-26 -124,-161 -131,-161 -73,239 -253,256 -471,330 -25,9 -40,22 -65,31 -24,8 -49,13 -71,25 -41,25 -88,31 -128,61 -26,19 -85,67 -101,91 -15,21 -24,35 -35,62 -9,22 -10,66 -15,77 -19,-5 -27,-17 -61,-17l-50 0c-64,0 -141,60 -175,95 -23,23 -47,44 -68,67 -11,12 -20,26 -30,38 -8,9 -9,11 -16,20 -3,2 -6,6 -9,9 -1,1 -3,2 -4,3 -1,0 -6,1 -4,3l3 4 4 -8 4 3c-15,10 -77,92 -93,112 -28,35 -58,78 -88,111 -33,36 -59,75 -99,104 -20,15 -35,30 -57,43 -55,32 -117,48 -179,62l0 0zm2655 -595c14,-1 73,-32 88,-32l50 0c1,0 61,19 64,21 19,9 35,22 52,34 43,28 59,46 94,81 16,16 25,29 40,45 18,17 26,32 40,46 16,17 25,26 40,46 11,15 26,39 36,52 76,91 245,313 393,313 -9,14 -41,32 -49,47 -9,20 -19,36 -27,55 -12,29 -27,95 -33,131 -15,91 -19,200 -19,305 0,99 -6,221 -32,292 -18,48 -22,74 -56,108 -11,11 -31,31 -45,37 -6,3 -57,23 -59,23l-50 0c1,19 33,41 44,58 10,15 31,53 31,74l0 32c0,146 -127,306 -189,403 -51,80 -196,282 -196,395l-1 66 -21 -9 -114 -14 -21 0c-75,0 -243,37 -298,59 -45,17 -232,73 -283,73 -21,14 -59,14 -93,14l-25 0c-125,0 -156,-63 -196,-146 -17,4 -18,27 -31,44 -12,15 -22,28 -37,41 -19,15 -80,47 -110,47l-61 0c-101,0 -243,-46 -331,-68 -86,-22 -223,-75 -325,-75l-74 0c-35,0 -78,33 -111,36l4 -32 0 -18c0,-90 -41,-159 -73,-220 -19,-37 -31,-59 -57,-89 -23,-28 -35,-60 -60,-89 -19,-22 -40,-63 -57,-90 -20,-31 -39,-57 -59,-87 -30,-44 -83,-142 -83,-213l0 -25c0,-90 59,-111 89,-157 -100,0 -160,-74 -188,-150 -27,-73 -47,-196 -47,-295 0,-113 -11,-220 -21,-321 -6,-54 -13,-97 -31,-140 -9,-23 -14,-40 -28,-58 -9,-13 -34,-35 -38,-48 71,-1 171,-91 211,-131 30,-29 56,-56 79,-92 21,-31 54,-65 76,-96 66,-88 232,-323 365,-323l43 0c27,0 77,45 101,47l-9 -68 0 -18c0,-46 33,-92 58,-116 36,-37 64,-46 106,-73 74,-49 168,-67 246,-107 36,-18 87,-31 127,-47 39,-15 92,-33 128,-51 54,-27 180,-129 194,-187 32,21 64,80 101,108 107,81 219,122 344,167 42,15 83,36 125,50 37,13 91,36 125,53 58,29 167,106 156,200l-12 82 0 0z"/>
   <path class="fil1" d="M1143 1983l7 -28c8,1 15,-1 20,-5 5,-3 9,-10 12,-18 3,-9 4,-16 2,-22 -1,-6 -4,-9 -8,-11 -3,-1 -6,0 -8,1 -3,1 -5,4 -8,8 -2,3 -7,10 -13,21 -8,14 -16,23 -22,28 -9,6 -19,8 -28,5 -5,-3 -10,-6 -14,-12 -4,-6 -5,-13 -5,-21 0,-9 1,-18 5,-29 6,-17 14,-29 23,-36 9,-7 19,-8 30,-5l-9 28c-6,-1 -11,0 -15,3 -4,3 -7,9 -10,17 -3,8 -3,15 -2,20 0,4 2,6 5,7 3,1 6,1 9,-2 3,-2 9,-10 16,-23 7,-12 14,-21 19,-27 5,-6 10,-9 17,-11 6,-2 12,-2 20,0 6,3 12,7 16,13 4,7 6,14 6,23 0,9 -2,20 -6,32 -6,17 -14,30 -24,37 -10,7 -21,9 -35,7l0 0zm82 -125l-107 -57 21 -39 85 16 -61 -62 21 -40 107 57 -13 24 -84 -44 70 70 -13 25 -97 -19 83 45 -12 24zm82 -150l-97 -71 17 -23 43 31 -8 -80 24 -32 5 72 94 -3 -22 31 -70 -1 2 31 30 21 -18 24 0 0zm130 -159l-78 -92 22 -19 98 23 -52 -62 21 -17 78 92 -23 20 -96 -23 51 61 -21 17 0 0zm224 -164l-27 17 -26 -17 -49 31 4 30 -27 17 -15 -133 26 -16 114 71zm-71 -12l-41 -27 7 48 34 -21zm87 4l-49 -110 27 -12 20 44 53 -24 -20 -44 27 -12 49 111 -27 12 -21 -48 -53 23 21 48 -27 12zm103 -171l52 -15c12,-3 21,-5 28,-5 9,-1 17,1 24,4 7,4 14,9 19,15 5,7 9,15 12,26 3,10 4,19 3,26 -1,10 -4,18 -9,25 -4,5 -10,10 -18,15 -6,4 -14,7 -24,10l-54 15 -33 -116 0 0zm34 12l22 76 22 -6c7,-2 13,-4 16,-6 5,-2 8,-5 11,-8 2,-3 3,-7 4,-13 0,-6 -1,-13 -3,-22 -3,-9 -6,-16 -9,-20 -3,-4 -7,-7 -12,-9 -4,-2 -9,-2 -14,-2 -5,1 -12,3 -24,6l-13 4 0 0zm145 69l-15 -119 29 -3 13 98 73 -9 2 21 -102 12zm254 -11l-32 0 -13 -28 -58 0 -12 28 -32 0 57 -121 31 0 59 121 0 0zm-54 -48l-20 -45 -20 45 40 0zm87 57l16 -99 -43 -7 3 -20 115 18 -3 20 -43 -7 -16 100 -29 -5 0 0zm125 -101l29 8 -18 63c-3,10 -4,16 -5,20 0,5 2,9 6,14 3,4 9,7 17,9 8,3 15,3 20,1 5,-1 8,-4 10,-7 2,-4 5,-11 7,-20l18 -64 29 8 -18 61c-4,14 -7,24 -10,29 -4,5 -8,9 -13,12 -5,3 -12,4 -19,5 -8,0 -17,-1 -28,-5 -14,-3 -24,-8 -30,-12 -6,-5 -11,-10 -13,-15 -3,-5 -5,-10 -5,-15 0,-7 2,-17 6,-30l17 -62zm107 162l49 -109 27 12 -41 91 68 29 -9 19 -94 -42 0 0zm227 -16l24 17 -38 54c-5,8 -9,14 -10,17 -2,5 -2,10 0,15 3,5 7,10 14,15 7,4 13,7 18,7 5,0 9,-1 12,-4 3,-3 8,-8 13,-16l38 -55 25 17 -37 52c-8,12 -15,20 -19,24 -5,4 -11,6 -16,7 -6,1 -13,1 -20,-2 -7,-2 -16,-6 -25,-13 -12,-8 -20,-15 -24,-21 -4,-7 -7,-13 -8,-19 -1,-5 -1,-11 1,-15 2,-7 7,-16 15,-27l37 -53 0 0zm47 191l82 -88 21 20 -67 73 54 50 -14 15 -76 -70zm171 189l-20 -25 14 -27 -37 -45 -29 7 -20 -24 130 -32 20 25 -57 121 -1 0zm3 -72l22 -44 -47 13 25 31 0 0zm4 87l107 -56 21 39 -61 62 85 -16 21 39 -106 57 -13 -24 84 -45 -98 19 -13 -25 70 -70 -84 45 -13 -25zm117 279l-10 -31 23 -20 -18 -56 -30 -3 -10 -30 132 17 10 30 -97 93 0 0zm29 -66l36 -34 -48 -5 12 39z"/>
   <path class="fil1" d="M1174 2837l99 -69 17 25 -44 30 79 19 23 33 -70 -19 -27 91 -22 -32 23 -66 -31 -8 -30 21 -17 -25 0 0zm89 122l89 -83 75 81 -15 14 -55 -59 -20 19 51 54 -15 14 -50 -55 -24 23 56 60 -15 14 -77 -82zm218 42l22 20 -50 57c-7,8 -12,13 -18,16 -6,3 -14,4 -22,2 -9,-2 -18,-7 -28,-15 -11,-10 -17,-19 -18,-30 -2,-10 1,-20 10,-30l23 17c-4,5 -7,10 -7,13 0,6 2,11 7,15 5,4 9,6 14,6 4,-1 9,-5 15,-12l52 -59 0 0zm80 203l-27 -17 4 -31 -50 -32 -25 17 -27 -18 114 -70 27 18 -16 133 0 0zm-20 -70l7 -49 -41 27 34 22zm139 -4l26 14 -36 67c-4,9 -9,15 -13,19 -6,5 -13,7 -22,8 -9,0 -19,-3 -30,-9 -13,-7 -21,-15 -25,-25 -4,-9 -3,-20 3,-31l27 11c-4,6 -5,11 -4,14 1,6 4,10 10,13 6,3 11,4 15,3 4,-2 8,-7 12,-15l37 -69zm124 177l-30 -11 -4 -30 -56 -20 -20 23 -30 -11 94 -95 30 10 16 134zm-36 -64l-5 -48 -34 35 39 13zm52 68l29 -117 61 15c15,4 26,7 33,11 6,4 11,9 14,16 2,6 3,13 1,20 -2,8 -7,15 -15,19 -7,4 -18,6 -31,4 6,4 10,9 13,14 4,4 7,12 12,23l12 27 -35 -9 -14 -31c-6,-10 -9,-17 -11,-20 -3,-3 -5,-6 -8,-8 -3,-1 -7,-3 -14,-4l-6 -2 -12 49 -29 -7 0 0zm46 -61l21 6c14,3 23,5 27,5 3,0 6,-1 9,-3 2,-2 4,-5 5,-8 1,-4 0,-8 -2,-11 -2,-3 -5,-5 -9,-7 -3,-1 -10,-3 -22,-6l-22 -5 -8 29 1 0zm178 97l-31 -122 31 1 19 84 30 -82 35 1 24 85 25 -83 30 1 -40 119 -32 -1 -26 -91 -33 89 -32 -1 0 0zm159 -56c-2,-12 -2,-23 1,-32 2,-7 5,-13 10,-19 5,-6 11,-11 17,-14 8,-5 18,-9 30,-11 22,-4 40,-2 55,6 15,8 24,22 28,42 4,19 0,35 -10,48 -11,14 -27,22 -48,26 -22,5 -40,2 -55,-6 -15,-8 -24,-22 -28,-40zm30 -7c3,13 9,23 18,28 9,6 19,7 31,5 11,-2 20,-8 27,-16 6,-8 7,-19 5,-33 -3,-14 -9,-23 -17,-28 -9,-6 -19,-7 -31,-5 -12,3 -21,8 -28,16 -5,8 -7,19 -5,33zm145 34l-34 -116 28 -8 81 61 -22 -78 26 -8 34 117 -29 8 -79 -59 21 75 -27 8 1 0zm113 -96c-5,-11 -7,-21 -7,-31 1,-7 3,-14 6,-21 3,-7 7,-13 13,-18 7,-6 16,-12 27,-17 20,-10 38,-12 54,-8 17,5 29,16 38,34 8,18 8,34 1,49 -7,16 -21,28 -40,37 -20,10 -38,12 -55,8 -16,-4 -28,-16 -37,-33zm28 -14c6,13 14,20 24,24 10,3 20,2 31,-3 11,-5 18,-13 22,-22 4,-10 3,-21 -3,-34 -6,-12 -14,-20 -23,-23 -10,-3 -20,-2 -31,3 -11,6 -19,13 -23,22 -4,10 -3,21 3,33zm119 -33l23 -17c6,5 12,8 18,9 7,0 14,-3 22,-7 8,-6 13,-11 15,-17 3,-5 2,-10 0,-13 -1,-3 -4,-4 -7,-5 -2,0 -6,0 -11,2 -4,1 -11,4 -23,8 -15,6 -27,9 -35,9 -11,-1 -19,-5 -25,-13 -3,-5 -5,-11 -4,-18 1,-7 4,-14 9,-21 5,-6 13,-13 22,-19 16,-10 29,-15 41,-14 12,0 20,5 27,14l-25 17c-4,-4 -9,-7 -14,-7 -5,0 -11,3 -18,7 -7,5 -12,10 -15,15 -1,3 -1,6 0,9 2,2 4,4 8,4 5,0 14,-3 27,-9 14,-5 25,-9 32,-10 8,-1 15,-1 21,1 6,3 11,7 15,13 4,6 6,13 5,20 -1,8 -4,15 -10,23 -5,7 -13,14 -24,21 -16,10 -30,15 -42,15 -13,-1 -23,-6 -32,-16l0 -1zm102 -88c-8,-9 -13,-18 -15,-27 -1,-7 -2,-14 0,-22 1,-7 3,-14 7,-21 5,-8 12,-16 21,-24 16,-15 33,-22 50,-22 18,-1 32,7 45,22 13,14 18,30 16,47 -3,17 -12,32 -29,47 -17,14 -33,21 -50,22 -17,0 -32,-7 -45,-22l0 0zm23 -20c9,10 19,15 29,15 11,1 20,-3 29,-11 9,-8 14,-17 15,-27 2,-10 -2,-21 -12,-31 -9,-11 -18,-16 -28,-17 -10,0 -20,4 -29,12 -10,8 -15,17 -16,28 -1,10 3,20 12,31l0 0zm51 -121l38 -45c7,-9 13,-16 18,-19 4,-4 8,-7 13,-9 5,-2 10,-3 15,-2 6,0 10,2 14,5 5,4 7,9 9,15 1,5 0,12 -2,18 7,-6 15,-8 22,-9 7,0 13,2 18,6 5,4 8,8 10,14 2,6 2,12 1,18 -1,6 -4,12 -9,19 -2,4 -10,13 -22,28l-33 39 -92 -78 0 0zm34 -10l22 18 12 -15c8,-9 13,-14 14,-17 3,-4 4,-8 4,-12 1,-4 -1,-7 -4,-9 -2,-3 -6,-4 -9,-3 -4,0 -7,2 -11,6 -2,2 -8,8 -16,19l-12 13 0 0zm37 31l25 21 18 -21c7,-9 11,-14 12,-17 3,-3 4,-7 4,-11 -1,-4 -2,-7 -6,-10 -2,-2 -5,-3 -9,-3 -3,0 -6,1 -10,3 -3,3 -10,9 -18,20l-16 18zm66 -84c-11,-6 -18,-14 -23,-22 -4,-6 -6,-13 -7,-20 -1,-8 -1,-15 1,-22 2,-10 6,-20 13,-30 11,-19 25,-31 41,-36 17,-5 33,-3 50,8 17,10 26,24 28,41 3,17 -2,34 -13,53 -12,19 -26,30 -42,36 -16,5 -32,2 -49,-8l1 0zm15 -26c12,7 23,9 33,6 10,-3 18,-9 24,-19 7,-10 9,-21 7,-31 -2,-10 -9,-19 -21,-26 -11,-8 -22,-10 -32,-7 -9,3 -18,9 -24,20 -7,10 -9,20 -8,31 2,10 9,18 21,26l0 0z"/>
  </g>
 </g>
</svg>
